<svg width="18" height="15" viewBox="0 0 18 15" fill="none" xmlns="http://www.w3.org/2000/svg">
<path d="M8.76982 0.333252C8.92414 0.333252 9.07846 0.333252 9.23278 0.333252C9.27553 0.341714 9.31812 0.35033 9.36087 0.358331C10.376 0.548651 11.0703 1.50779 10.9126 2.52709C10.8025 3.23853 10.3959 3.73487 9.73633 4.02427C9.6746 4.05135 9.65284 4.08397 9.653 4.14997C9.65485 4.97034 9.65423 5.7907 9.65439 6.61091C9.65439 6.71092 9.65686 6.71323 9.75979 6.71323C11.0095 6.71323 12.259 6.71292 13.5087 6.71369C13.5863 6.71369 13.6626 6.70492 13.738 6.68984C14.347 6.56799 14.7599 6.02826 14.7564 5.4653C14.7536 5.03465 14.7539 4.60401 14.7584 4.17336C14.7593 4.08812 14.7309 4.04674 14.6525 4.01412C13.9388 3.71702 13.419 2.97251 13.4854 2.11953C13.5331 1.50579 13.8136 1.02391 14.3126 0.666813C14.5748 0.479108 14.8721 0.378794 15.1896 0.333252C15.3388 0.333252 15.4879 0.333252 15.6371 0.333252C15.647 0.336021 15.6565 0.340176 15.6666 0.34156C16.1979 0.417258 16.6269 0.668044 16.9541 1.0913C17.1675 1.36732 17.2846 1.68319 17.3346 2.02568C17.3346 2.17953 17.3346 2.33339 17.3346 2.48725C17.332 2.49709 17.3285 2.50679 17.3268 2.51694C17.2044 3.24007 16.8016 3.74318 16.128 4.03197C16.0729 4.05551 16.0586 4.08905 16.0589 4.14397C16.0606 4.46953 16.0618 4.79525 16.0589 5.12081C16.057 5.32298 16.0689 5.5253 16.0461 5.72762C15.9817 6.29766 15.753 6.79292 15.3582 7.20695C14.8468 7.7433 14.2126 8.01147 13.4715 8.01424C12.2423 8.0187 11.0132 8.01547 9.78402 8.01547C9.65454 8.01547 9.65454 8.01562 9.65454 8.14779C9.65454 8.94769 9.65609 9.74759 9.65254 10.5475C9.65207 10.638 9.6797 10.6807 9.76457 10.7169C10.5468 11.0489 11.0192 11.8533 10.9218 12.6755C10.8393 13.3729 10.4777 13.8797 9.8567 14.205C9.65655 14.3097 9.43988 14.3627 9.21766 14.3958C9.07368 14.3958 8.92954 14.3958 8.78556 14.3958C8.74266 14.3879 8.69991 14.3799 8.65701 14.3724C7.63988 14.1936 6.92862 13.2204 7.08818 12.2082C7.19976 11.5003 7.59775 11.0015 8.25377 10.7107C8.32723 10.6781 8.35053 10.6401 8.35022 10.562C8.34744 9.7542 8.34852 8.94646 8.34852 8.13871C8.34852 8.01562 8.34837 8.01547 8.22522 8.01547C6.60747 8.01547 4.98973 8.01547 3.37183 8.01547C3.24621 8.01547 3.2459 8.01562 3.2459 8.13779C3.24575 8.94292 3.24698 9.7482 3.24405 10.5533C3.24374 10.637 3.26859 10.6798 3.34791 10.7141C4.14173 11.0571 4.60547 11.8308 4.51149 12.6846C4.44173 13.318 4.1192 13.8025 3.57368 14.1365C3.34004 14.2796 3.08217 14.3545 2.81318 14.3958C2.66396 14.3958 2.51488 14.3958 2.36565 14.3958C2.35331 14.3927 2.34112 14.3884 2.32862 14.3865C1.80084 14.3085 1.37383 14.059 1.04868 13.6377C0.835407 13.3617 0.717197 13.0463 0.667969 12.7033C0.667969 12.5495 0.667969 12.3956 0.667969 12.2418C0.671055 12.2293 0.674913 12.2171 0.677074 12.2045C0.799913 11.488 1.19991 10.9883 1.86643 10.7003C1.93217 10.672 1.94405 10.633 1.94389 10.5706C1.94281 8.43319 1.94266 6.29566 1.94467 4.15828C1.94467 4.08443 1.91951 4.05074 1.85223 4.02289C1.44744 3.85488 1.13371 3.58086 0.91195 3.20299C0.781703 2.98097 0.708864 2.73957 0.667969 2.48725C0.667969 2.33339 0.667969 2.17953 0.667969 2.02568C0.671364 2.00814 0.675222 1.99075 0.678154 1.97321C0.772444 1.39271 1.06612 0.941294 1.56087 0.620964C1.80624 0.46203 2.07846 0.376947 2.3655 0.333252C2.51473 0.333252 2.6638 0.333252 2.81303 0.333252C2.8584 0.34156 2.90362 0.349868 2.94899 0.358331C3.92769 0.540497 4.63494 1.44656 4.50886 2.47217C4.4192 3.20176 4.01426 3.71641 3.34143 4.01689C3.26828 4.04951 3.24343 4.08828 3.24374 4.16613C3.24621 4.97618 3.24513 5.78624 3.24528 6.5963C3.24528 6.71153 3.24744 6.71338 3.36102 6.71338C4.98602 6.71338 6.61102 6.71338 8.23602 6.71338C8.34775 6.71338 8.34821 6.71307 8.34821 6.6023C8.34837 5.79224 8.34698 4.98219 8.35022 4.17213C8.35053 4.08659 8.32213 4.04704 8.24405 4.01443C7.46118 3.68764 6.98818 2.8905 7.08139 2.05229C7.15408 1.39794 7.48571 0.90806 8.05099 0.573422C8.27275 0.442182 8.51704 0.374024 8.76982 0.333252Z" fill="#959595"/>
</svg>
